<svg version="1.1" id="Layer_1" xmlns="http://www.w3.org/2000/svg" x="0" y="0" viewBox="0 0 256 256" style="enable-background:new 0 0 256 256" xml:space="preserve"><style>.st8{fill:#491352}</style><path d="M128.002 196.365c-37.74 0-68.373-30.67-68.373-68.365 0-37.656 30.601-68.37 68.37-68.37 37.597 0 68.37 30.545 68.37 68.37.001 37.576-30.51 68.365-68.367 68.365z" style="fill:#fff"/><path d="M237.05 115.38h-14.27c-5.63-42.71-39.45-76.53-82.16-82.16V18.95c0-6.956-5.652-12.62-12.62-12.62-6.918 0-12.62 5.602-12.62 12.62v14.27a95.241 95.241 0 0 0-51.06 23.47c-16.64 14.86-28.04 35.46-31.1 58.69H18.95c-6.97 0-12.62 5.65-12.62 12.62 0 6.895 5.585 12.62 12.62 12.62h14.27c3.06 23.23 14.46 43.83 31.1 58.69 14.306 12.798 32.075 20.967 51.06 23.47v14.27c0 6.97 5.65 12.62 12.62 12.62 6.958 0 12.62-5.657 12.62-12.62v-14.27c42.71-5.63 76.53-39.45 82.16-82.16h14.27c6.97 0 12.62-5.65 12.62-12.62 0-6.895-5.586-12.62-12.62-12.62zM128 198.37c-38.86 0-70.37-31.51-70.37-70.37 0-38.85 31.5-70.37 70.37-70.37 38.775 0 70.37 31.428 70.37 70.37 0 38.881-31.537 70.37-70.37 70.37z" style="fill:#d73735"/><path d="M237.05 115.38h-14.27c-5.63-42.71-39.45-76.53-82.16-82.16V18.95c0-6.956-5.652-12.62-12.62-12.62-6.918 0-12.62 5.602-12.62 12.62v14.27a95.241 95.241 0 0 0-51.06 23.47C54.89 78.56 49.67 102.67 49.67 128s5.22 49.44 14.65 71.31c14.306 12.798 32.075 20.967 51.06 23.47v14.27c0 6.97 5.65 12.62 12.62 12.62 6.958 0 12.62-5.657 12.62-12.62v-14.27c42.71-5.63 76.53-39.45 82.16-82.16h14.27c6.97 0 12.62-5.65 12.62-12.62 0-6.895-5.586-12.62-12.62-12.62zM128 198.37c-38.86 0-70.37-31.51-70.37-70.37 0-38.85 31.5-70.37 70.37-70.37 38.775 0 70.37 31.428 70.37 70.37 0 38.881-31.537 70.37-70.37 70.37z" style="fill:#f85252"/><circle transform="rotate(-67.5 127.998 98.668)" cx="128" cy="98.67" style="fill:#7befe4" r="17.85"/><path d="M145.85 98.67c0 9.85-7.99 17.85-17.85 17.85v-35.7c9.86 0 17.85 7.99 17.85 17.85z" style="fill:#56c1b3"/><circle cx="128" cy="141.948" r="33.231" style="fill:#40c4df"/><path d="M161.231 141.948c0 18.356-14.876 33.231-33.231 33.231v-66.462c18.356 0 33.231 14.875 33.231 33.231z" style="fill:#1c868e"/><path class="st8" d="M178.13 139.95h-14.959a34.979 34.979 0 0 0-2.029-9.95h8.398a2 2 0 0 0 0-4H159.4a35.46 35.46 0 0 0-15.506-15.48 19.76 19.76 0 0 0-.524-24.392l7.635-7.635a2 2 0 1 0-2.828-2.828l-7.635 7.635c-7.194-5.882-17.609-6.046-25.006-.057l-7.604-7.68a2 2 0 0 0-2.842 2.815l7.599 7.675c-5.8 7.026-6.095 17.12-.581 24.468a35.455 35.455 0 0 0-15.506 15.48H86.46a2 2 0 0 0 0 4h8.398a34.979 34.979 0 0 0-2.029 9.95H77.87a2 2 0 0 0 0 4h14.959a35.021 35.021 0 0 0 2.03 9.95H86.46a2 2 0 0 0 0 4h10.143c5.831 11.429 17.711 19.279 31.397 19.279s25.566-7.85 31.397-19.279h10.143a2 2 0 0 0 0-4h-8.399a35.014 35.014 0 0 0 2.03-9.95h14.959a2 2 0 0 0 0-4.001zm-62.262-31.089C107.293 98.724 114.454 82.82 128 82.82c13.517 0 20.73 15.876 12.132 26.041A35.762 35.762 0 0 0 128 106.716c-3.938 0-8.171.695-12.132 2.145zm-19.099 33.097.001-.007-.001-.008c.003-16.328 12.702-30.104 29.231-31.152v62.318c-16.288-1.037-29.226-14.608-29.231-31.151zM130 173.108V110.79c16.373 1.024 29.228 14.685 29.231 31.152l-.001.008.001.007c-.005 16.544-12.943 30.115-29.231 31.151z"/><path class="st8" d="M128 55.635c-39.995 0-72.37 32.519-72.37 72.365 0 39.905 32.447 72.37 72.37 72.37 39.912 0 72.37-32.451 72.37-72.37 0-39.832-32.362-72.365-72.37-72.365zm.002 140.73c-37.74 0-68.373-30.67-68.373-68.365 0-37.656 30.601-68.37 68.37-68.37 37.597 0 68.37 30.545 68.37 68.37.001 37.576-30.51 68.365-68.367 68.365z"/><path class="st8" d="M237.05 113.38h-12.532c-6.34-42.234-39.662-75.558-81.897-81.898V18.95c0-8.062-6.559-14.62-14.62-14.62s-14.62 6.559-14.62 14.62v12.532c-42.235 6.34-75.558 39.664-81.897 81.898H18.95c-8.062 0-14.62 6.559-14.62 14.62s6.559 14.62 14.62 14.62h12.532c6.34 42.234 39.662 75.558 81.897 81.898v12.532c0 8.062 6.559 14.62 14.62 14.62s14.62-6.559 14.62-14.62v-12.532c42.235-6.34 75.558-39.664 81.897-81.898h12.532c8.062 0 14.62-6.559 14.62-14.62s-6.557-14.62-14.618-14.62zm0 25.24h-14.27a1.998 1.998 0 0 0-1.982 1.739c-5.517 41.845-38.594 74.922-80.439 80.438a2 2 0 0 0-1.738 1.983v14.27c0 5.856-4.764 10.62-10.62 10.62s-10.62-4.764-10.62-10.62v-14.27a2 2 0 0 0-1.738-1.983c-41.846-5.516-74.923-38.594-80.439-80.438a2 2 0 0 0-1.982-1.739H18.95c-5.855 0-10.62-4.764-10.62-10.62s4.765-10.62 10.62-10.62h14.27a1.998 1.998 0 0 0 1.982-1.739c5.517-41.845 38.594-74.922 80.439-80.438a2 2 0 0 0 1.738-1.983V18.95c0-5.856 4.764-10.62 10.62-10.62s10.62 4.764 10.62 10.62v14.27a2 2 0 0 0 1.738 1.983c41.846 5.516 74.923 38.594 80.439 80.438a2 2 0 0 0 1.982 1.739h14.27c5.855 0 10.62 4.764 10.62 10.62s-4.763 10.62-10.618 10.62z"/></svg>